HIERARCHY
ROOT Hips
{
	OFFSET	0.00	0.00	0.00
	CHANNELS 6 Xposition Yposition Zposition Zrotation Xrotation Yrotation
	JOINT LeftUpLeg
	{
		OFFSET	 0.126116	-0.014019	-0.065224
		CHANNELS 3 Zrotation Xrotation Yrotation
		JOINT LeftLeg
		{
			OFFSET	 0.000000	 0.000000	 0.569914
			CHANNELS 3 Zrotation Xrotation Yrotation
			JOINT LeftFoot
			{
				OFFSET	 0.000000	 0.000000	 0.544423
				CHANNELS 3 Zrotation Xrotation Yrotation
				JOINT LeftToeBase
				{
					OFFSET	 0.000000	 0.000000	 0.207117
					CHANNELS 3 Zrotation Xrotation Yrotation
					End Site
					{
						OFFSET	 0.000000	 0.000000	 0.207117
					}
				}
			}
		}
	}
	JOINT RightUpLeg
	{
		OFFSET	-0.124023	-0.008373	-0.065224
		CHANNELS 3 Zrotation Xrotation Yrotation
		JOINT RightLeg
		{
			OFFSET	 0.000000	 0.000000	 0.570047
			CHANNELS 3 Zrotation Xrotation Yrotation
			JOINT RightFoot
			{
				OFFSET	 0.000000	 0.000000	 0.544354
				CHANNELS 3 Zrotation Xrotation Yrotation
				JOINT RightToeBase
				{
					OFFSET	 0.000000	 0.000000	 0.207540
					CHANNELS 3 Zrotation Xrotation Yrotation
					End Site
					{
						OFFSET	 0.000000	 0.000000	 0.207540
					}
				}
			}
		}
	}
	JOINT Spine
	{
		OFFSET	 0.000184	-0.007763	 0.117403
		CHANNELS 3 Zrotation Xrotation Yrotation
		JOINT Spine1
		{
			OFFSET	 0.000000	 0.000000	 0.137269
			CHANNELS 3 Zrotation Xrotation Yrotation
			JOINT Spine2
			{
				OFFSET	 0.000000	 0.000000	 0.156879
				CHANNELS 3 Zrotation Xrotation Yrotation
				JOINT LeftShoulder
				{
					OFFSET	 0.080501	-0.002496	 0.160144
					CHANNELS 3 Zrotation Xrotation Yrotation
					JOINT LeftArm
					{
						OFFSET	 0.000000	 0.000000	 0.164363
						CHANNELS 3 Zrotation Xrotation Yrotation
						JOINT LeftForeArm
						{
							OFFSET	 0.000000	 0.000000	 0.364576
							CHANNELS 3 Zrotation Xrotation Yrotation
							JOINT LeftHand
							{
								OFFSET	 0.000000	 0.000000	 0.360812
								CHANNELS 3 Zrotation Xrotation Yrotation
								JOINT LeftHandIndex1
								{
									OFFSET	 0.000000	 0.000000	 0.086006
									CHANNELS 3 Zrotation Xrotation Yrotation
									JOINT LeftHandIndex2
									{
										OFFSET	 0.000000	 0.000000	 0.047237
										CHANNELS 3 Zrotation Xrotation Yrotation
										JOINT LeftHandIndex3
										{
											OFFSET	-0.004284	-0.000551	 0.038165
											CHANNELS 3 Zrotation Xrotation Yrotation
											End Site
											{
												OFFSET	-0.004284	-0.000551	 0.038165
											}
										}
									}
								}
							}
						}
					}
				}
				JOINT Neck
				{
					OFFSET	 0.000000	 0.000000	 0.176489
					CHANNELS 3 Zrotation Xrotation Yrotation
					JOINT Head
					{
						OFFSET	 0.000000	-0.001747	 0.077940
						CHANNELS 3 Zrotation Xrotation Yrotation
						End Site
						{
							OFFSET	 0.000000	-0.001747	 0.077940
						}
					}
				}
				JOINT RightShoulder
				{
					OFFSET	-0.080363	 0.000306	 0.159706
					CHANNELS 3 Zrotation Xrotation Yrotation
					JOINT RightArm
					{
						OFFSET	 0.000000	 0.000000	 0.164196
						CHANNELS 3 Zrotation Xrotation Yrotation
						JOINT RightForeArm
						{
							OFFSET	 0.000000	 0.000000	 0.365611
							CHANNELS 3 Zrotation Xrotation Yrotation
							JOINT RightHand
							{
								OFFSET	 0.000000	 0.000000	 0.360648
								CHANNELS 3 Zrotation Xrotation Yrotation
								JOINT RightHandIndex1
								{
									OFFSET	 0.000000	 0.000000	 0.069977
									CHANNELS 3 Zrotation Xrotation Yrotation
									JOINT RightHandIndex2
									{
										OFFSET	 0.000000	 0.000000	 0.052305
										CHANNELS 3 Zrotation Xrotation Yrotation
										JOINT RightHandIndex3
										{
											OFFSET	 0.009002	-0.000782	 0.042196
											CHANNELS 3 Zrotation Xrotation Yrotation
											End Site
											{
												OFFSET	 0.009002	-0.000782	 0.042196
											}
										}
									}
								}
							}
						}
					}
				}
			}
		}
	}
}
MOTION
Frames:    6
Frame Time: 0.03333334
-0.714685	-0.024000	 1.253679	 169.294800	-4.711052	 1.514739	-2.357592	-2.655007	 178.309600	-2.176926	-33.341480	-2.002827	-54.419010	 81.073020	 44.259720	-2.385833	 28.452760	 0.000004	-21.037650	-6.828236	-171.555300	 10.360390	-34.419540	 6.027382	 29.405310	 83.792880	-30.275720	 2.384659	 28.388700	-0.000001	 10.485820	-3.249810	-14.567730	 5.670486	 9.660640	-3.480322	 8.878650	 2.653017	 6.352965	-91.776120	 78.527400	 179.999900	-0.249734	 52.409080	-30.360130	-23.593220	 20.646520	-75.522160	-36.191860	-32.075080	-20.989800	-4.130354	 21.526190	 0.991307	-5.167926	 0.731697	 3.519349	-1.378229	 35.397820	-2.634230	 14.518470	 6.014259	-2.440046	 8.492347	-13.313080	-2.061935	 89.782090	 78.203870	 180.000000	-60.116800	 0.590496	 76.404820	 10.590750	 1.289608	 135.376800	 1.090485	 10.297160	 18.844080	 5.716295	 19.173350	-3.684826	 5.027458	 0.246833	-9.377971	-2.350882	 35.473990	 5.254307
-0.714613	-0.025277	 1.252473	 168.565500	-5.081784	 1.913984	-2.815744	-2.404280	 178.436700	-1.871775	-33.487830	-1.841782	-52.936670	 80.999380	 42.426880	-2.385833	 28.452760	 0.000004	-21.728360	-6.817812	-171.390300	 10.687450	-34.323910	 6.201697	 26.696840	 83.464060	-27.964980	 2.384659	 28.388700	-0.000001	 12.257680	-3.274834	-15.672710	 6.575090	 10.809920	-4.125968	 8.879725	 0.618818	 8.444645	-91.776210	 78.527380	-180.000000	-13.499360	 46.527010	-26.977980	-22.889690	 21.508220	-77.888560	-37.433620	-32.170780	-21.773880	-4.130354	 21.526190	 0.991307	-5.167926	 0.731697	 3.519349	-1.378229	 35.397820	-2.634230	 14.887030	 5.150244	-3.849064	 8.196213	-14.167540	-4.350148	 89.782110	 78.203830	 180.000000	-61.081230	-0.562762	 76.850410	 11.523650	 0.380573	 134.457000	-3.562287	 9.797112	 19.951670	 5.716295	 19.173350	-3.684826	 5.027458	 0.246833	-9.377971	-2.350882	 35.473990	 5.254307
-0.713544	-0.026235	 1.251553	 168.116300	-5.065279	 2.007942	-3.419698	-2.557229	 178.839200	-1.633036	-33.437510	-1.707501	-51.520960	 81.196780	 40.748960	-2.385833	 28.452760	 0.000004	-22.262090	-7.329640	-171.128200	 10.979340	-34.445460	 6.390130	 25.749850	 83.183180	-27.246530	 2.384659	 28.388700	-0.000001	 13.685930	-4.113475	-15.745070	 7.495743	 12.262880	-3.959525	 8.963865	-1.232644	 8.468080	-91.776120	 78.527360	 180.000000	-24.834120	 41.842340	-27.620910	-23.868700	 21.619000	-75.411140	-38.607740	-32.412210	-22.611050	-4.130354	 21.526190	 0.991307	-5.167926	 0.731697	 3.519349	-1.378229	 35.397820	-2.634230	 15.069810	 5.310695	-4.439191	 8.062756	-15.588000	-4.479400	 89.782090	 78.203900	-180.000000	-60.536770	-1.957895	 77.312450	 12.350640	-0.469735	 134.000000	-7.400748	 8.831275	 19.618570	 5.716295	 19.173350	-3.684826	 5.027458	 0.246833	-9.377971	-2.350882	 35.473990	 5.254307
-0.712415	-0.026879	 1.250876	 167.662100	-4.976399	 1.754676	-4.134002	-2.471936	 179.313600	-1.399699	-33.052270	-1.562568	-49.749680	 81.199980	 38.781090	-2.385833	 28.452760	 0.000004	-22.765680	-7.943362	-170.817900	 11.301810	-34.849660	 6.644367	 26.048590	 83.421360	-27.684610	 2.384659	 28.388700	-0.000001	 15.482640	-5.167079	-15.531650	 8.797723	 13.408920	-3.896633	 8.971409	-2.874798	 8.307473	-91.776140	 78.527350	 180.000000	-34.079870	 37.960870	-31.895860	-26.159250	 21.190610	-69.323970	-39.778630	-32.546610	-23.324750	-4.130354	 21.526190	 0.991307	-5.167926	 0.731697	 3.519349	-1.378229	 35.397820	-2.634230	 15.161800	 5.806273	-4.898301	 7.999588	-17.363300	-4.342582	 89.782100	 78.203870	 180.000000	-58.638870	-3.768720	 78.582970	 13.455930	-1.643224	 133.501200	-11.456290	 7.679923	 17.420870	 5.716295	 19.173350	-3.684826	 5.027458	 0.246833	-9.377971	-2.350882	 35.473990	 5.254307
-0.713359	-0.026751	 1.250911	 167.146200	-4.980257	 1.566510	-5.027380	-2.077488	 179.808500	-1.105878	-32.695680	-1.388644	-49.358960	 81.326610	 38.118210	-2.385833	 28.452760	 0.000004	-23.358790	-8.087311	-170.430800	 11.604050	-34.825340	 6.817865	 25.827960	 83.540570	-27.667210	 2.384659	 28.388700	-0.000001	 17.458210	-6.044587	-15.523900	 10.302120	 14.437090	-4.828633	 8.962345	-4.391690	 8.867751	-91.776150	 78.527380	 180.000000	-40.763310	 34.975660	-38.401390	-29.336750	 19.946100	-60.450400	-40.656810	-32.484260	-23.627470	-4.130354	 21.526190	 0.991307	-5.167926	 0.731697	 3.519349	-1.378229	 35.397820	-2.634230	 15.099780	 5.787997	-5.190962	 7.878558	-18.638860	-4.610435	 89.782050	 78.203890	-180.000000	-56.319920	-5.777578	 80.324910	 14.756650	-3.153015	 132.244700	-15.983200	 7.255121	 14.822560	 5.716295	 19.173350	-3.684826	 5.027458	 0.246833	-9.377971	-2.350882	 35.473990	 5.254307
-0.715771	-0.025763	 1.251488	 166.708000	-5.139882	 1.583376	-5.974871	-1.524584	-179.801200	-0.799028	-32.535200	-1.217337	-51.739480	 81.796920	 40.191830	-2.385833	 28.452760	 0.000004	-24.055470	-7.787813	-170.096000	 11.839370	-34.412060	 6.884611	 25.558840	 83.429080	-27.627900	 2.384659	 28.388700	-0.000001	 19.197960	-6.737102	-15.548110	 11.874170	 15.046490	-6.707741	 8.888705	-5.302598	 9.617196	-91.776220	 78.527420	-180.000000	-44.522000	 33.874510	-44.170870	-31.783150	 18.397680	-52.970100	-41.346860	-32.499940	-23.790730	-4.130354	 21.526190	 0.991307	-5.167926	 0.731697	 3.519349	-1.378229	 35.397820	-2.634230	 14.823310	 5.332831	-5.049747	 7.656088	-19.135460	-5.019474	 89.782060	 78.203870	-180.000000	-53.771200	-7.467136	 82.236850	 15.775810	-4.588151	 130.283700	-19.777500	 7.393477	 12.258260	 5.716295	 19.173350	-3.684826	 5.027458	 0.246833	-9.377971	-2.350882	 35.473990	 5.254307
